<!-- Generator: Adobe Illustrator 25.0.0, SVG Export Plug-In  -->
<svg version="1.1" xmlns="http://www.w3.org/2000/svg" xmlns:xlink="http://www.w3.org/1999/xlink" x="0px" y="0px"
	 width="152.46px" height="153.34px" viewBox="0 0 152.46 153.34"
	 style="overflow:visible;enable-background:new 0 0 152.46 153.34;" xml:space="preserve">
<style type="text/css">
	.st0{opacity:0.9;fill:#FFFFFF;}
	.st1{fill:none;stroke:#D10737;stroke-width:5;stroke-linecap:round;stroke-linejoin:round;stroke-miterlimit:10;}
</style>
<defs>
</defs>
<path class="st0" d="M132.33,139.19c-3.95,0-9.36-1.25-10.61-2.7c-2.98-3.48,0.48-4.86,2.61-6.97c0.22-0.19,0.43-0.38,0.65-0.57
	c1.35-1.01,2.46-2.07,3.37-3.18c15.21-15.32,23.8-36.9,21.13-59.52C144.76,26.32,106.76-1.7,66.81,3.02s-68.51,40.9-63.8,80.82
	c2.97,25.15,18.44,45.77,39.46,56.42c3.32,2.08,6.82,3.69,10.61,4.76c31.61,8.94,55.55,5.46,67,3.38
	c10.51-1.91,26.89-9.43,24.21-9.24C141.68,139.35,136.1,139.19,132.33,139.19z"/>
<path class="st1" d="M132.33,139.19c-3.95,0-9.36-1.25-10.61-2.7c-2.98-3.48,0.48-4.86,2.61-6.97c0.22-0.19,0.43-0.38,0.65-0.57
	c1.35-1.01,2.46-2.07,3.37-3.18c15.21-15.32,23.8-36.9,21.13-59.52C144.76,26.32,106.76-1.7,66.81,3.02s-68.51,40.9-63.8,80.82
	c2.97,25.15,18.44,45.77,39.46,56.42c3.32,2.08,6.82,3.69,10.61,4.76c31.61,8.94,55.55,5.46,67,3.38
	c10.51-1.91,26.89-9.43,24.21-9.24C141.68,139.35,136.1,139.19,132.33,139.19z"/>
</svg>
