<!-- Generator: Adobe Illustrator 25.0.0, SVG Export Plug-In  -->
<svg version="1.1" xmlns="http://www.w3.org/2000/svg" xmlns:xlink="http://www.w3.org/1999/xlink" x="0px" y="0px"
	 width="511.43px" height="116.12px" viewBox="0 0 511.43 116.12"
	 style="overflow:visible;enable-background:new 0 0 511.43 116.12;" xml:space="preserve">
<style type="text/css">
	.st0{fill:#E1251B;}
	.st1{fill-rule:evenodd;clip-rule:evenodd;fill:#E1251B;}
	.st2{fill:#323E48;}
</style>
<defs>
</defs>
<g>
	<g>
		<g>
			<g>
				<path class="st0" d="M160.42,17.43C149.86,9.17,125.45,2.98,98.13,1.17c-4.86-0.38-9.84-0.62-14.82-0.62
					c-4.61,0-9.1,0.24-13.6,0.48l0,0C41.9,2.73,16.88,9.05,6.2,17.43C1.94,20.71,0,25.32,0,30.18c0,4,0.73,7.77,4.37,11.04
					c9.84,8.99,38.52,17.59,65.33,20.4c4.62,0.49,9.23,0.73,13.6,0.73c4.74,0,9.84-0.36,14.82-0.85c26.47-2.68,54.41-11.42,64-20.28
					c3.64-3.27,4.49-7.05,4.49-11.04C166.61,25.32,164.68,20.71,160.42,17.43z M136.26,41.35c-6.21,7.16-20.16,13.36-38.14,15.67
					c-4.61,0.6-9.59,0.97-14.82,0.97c-4.73,0-9.35-0.35-13.6-0.85c-18.58-2.19-33.03-8.39-39.46-15.79
					c-2.43-2.92-3.52-7.17-3.52-10.2c0-3.29,1.33-8.5,6.43-12.39c6.8-5.22,20.05-10.52,36.55-12.88c4.25-0.6,8.87-0.84,13.6-0.97
					c5.1,0.13,10.08,0.53,14.82,1.23c15.9,2.3,28.66,7.52,35.34,12.62c5.1,3.89,6.43,9.1,6.43,12.39
					C139.89,34.18,138.81,38.43,136.26,41.35z"/>
				<path class="st1" d="M95.82,22.71c0.85-0.12,1.57-0.25,2.31-0.61c1.09-0.36,2.18-0.97,3.4-1.69c0.85-0.74,1.58-1.46,2.31-2.42
					c0.36-1.7,0.36-2.92,0-4.38c-0.85-0.73-1.46-1.33-2.54-1.82c-1.1-0.23-2.07-0.36-3.16,0c-0.61,0.24-1.22,0.74-1.82,1.46
					c-2.55,3.04-4.12,5.46-4.12,9.71C93.38,23.07,94.72,22.95,95.82,22.71z M69.71,21.01c0.97,0.49,2.07,0.85,2.8,1.21
					c0.72,0.25,2.3,0.61,2.66,0c0.61-1.21,0.24-2.79,0-4.13c-0.37-1.82-1.34-3.4-2.42-4.98c-0.73-0.96-1.83-2.06-3.04-2.55
					c-0.12,0-0.24-0.12-0.36-0.12c-1.09-0.35-2.54-0.35-3.4,0.36c-1.34,1.21-2.67,3.29-1.94,5.35
					C64.73,18.46,67.4,20.03,69.71,21.01z M98.13,44.32h-0.24c-0.73-0.36-1.09-0.85-1.21-1.94v-8.14h7.52V25.5h-6.07l-9.59-0.12
					l0.12-15.43h-9.84v15.43l-9.11,0.12h-7.04v8.74h7.52c-0.12,1.71-0.24,3.65-0.24,5.23c-0.13,0.48-0.13,0.98-0.24,1.46
					c-0.36,1.45-0.84,2.92-1.57,4.37c-1.34,2.06-2.68,3.89-4.01,5.95c-0.12,1.09,0.98,1.09,1.46,0.97c1.69-0.85,2.91-1.58,4.13-2.42
					c1.21-0.84,2.43-1.7,3.89-2.79c1.94-1.46,3.88-4.01,4.98-5.83c1.09-1.7,1.95-2.79,2.79-5.21l0.36-1.6l3.88-0.12l0.96,0.61
					l-0.11,13.48c0.36,1.94,1.81,3.28,2.79,3.52l5.94,0.23l2.92-0.11l1.7-0.12c3.15-1.95,4-3.76,4.61-7.66L98.13,44.32z"/>
			</g>
		</g>
		<g>
			<g>
				<path class="st2" d="M143.13,79.2c0-0.34,0.39-0.83,0.74-0.83h12.85c0.35,0,0.74,0.49,0.74,0.83v4.23h3.98v-4.9
					c0-1.52-0.94-3.35-3.44-3.35h-5.42c-0.5-1-1.05-2.31-1.35-3.4h-4.78c0.31,0.99,0.88,2.38,1.33,3.4h-5.2
					c-2.49,0-3.44,1.83-3.44,3.35v4.9h3.99V79.2z M139.74,90.29h5.42c2.36-1.77,4.08-5.57,4.2-9.58h-4.25
					C144.67,86.68,140.8,89.48,139.74,90.29z M151.27,80.71v5.76c0,2.58,1.76,3.72,3.98,3.72h5.18l0.97-3.17h-4.94
					c-0.59,0-0.92-0.33-0.92-0.83v-5.48H151.27z M138.51,86.36c-0.82,0.39-1.94,0.92-2.85,1.29v-5.96h2.28v-3.33h-2.28v-6.58h-4.49
					v6.58h-3.57l-0.04,3.33h3.61v7.87c-1.19,0.47-2.72,0.98-3.97,1.35v3.68c1.11-0.37,2.68-0.91,3.97-1.41v8.44
					c0,0.57-0.46,0.86-0.95,0.86h-2.62l1.04,3.19h3.49c2.26,0,3.52-1.84,3.52-3.35V91.17c0.88-0.34,1.93-0.76,2.85-1.21V86.36z
					 M152.25,102.49v-7.25h8.33v-3.21h-20.89v3.21h7.64v7.25h-9.11v3.18h23.38v-3.18H152.25z"/>
				<path class="st2" d="M113.28,100.97c1.03-2.41,1.91-4.84,2.58-7.4h-4.56c-0.75,2.59-1.59,5.07-3,7.4H113.28z M96.16,93.56h-4.73
					c0.82,2.56,1.71,4.99,2.81,7.4h5.05C98.03,98.56,96.96,96.15,96.16,93.56z M106.36,92h13.04v-3.35h-13.04v-4.5h5.78v-2.88
					c1.56,1.88,2.3,2.69,2.94,3.31h6.21c-3.14-3.09-6.3-6.56-8.61-10c-0.39-0.57-1.48-2.27-3.67-2.27H98.27
					c-2.18,0-3.28,1.7-3.66,2.27c-2.3,3.44-5.47,6.91-8.6,10h6.21c0.64-0.61,1.4-1.41,2.94-3.26v2.83h5.78v4.5H87.89V92h13.05v10.31
					H86.78v3.35h33.74v-3.35h-14.16V92z M95.6,80.79c0.93-1.12,2.1-2.56,3.64-4.49c0.34-0.42,0.62-0.65,1.3-0.65h6.29
					c0.68,0,0.97,0.23,1.3,0.65c1.54,1.93,2.7,3.37,3.62,4.49H95.6z"/>
				<path class="st2" d="M5.02,104.53h4.16c1.1-3.59,1.85-7.4,2.38-11.14H7.7C7.2,96.23,5.92,102.07,5.02,104.53z M23.31,88.61
					h-6.18v-2.57h6.2v-3.24h-3.08c0.42-1.46,0.87-3.22,1.18-4.69H23v-3.24h-5.99c-0.39-0.95-0.86-2.3-1.09-3.17h-4.55
					c0.26,0.97,0.66,2.19,1.03,3.17H6.55v3.24h1.61c0.3,1.47,0.71,3.22,1.12,4.69H6.23v3.24h6.43v2.57H6.23v3.24h6.43v13.78h4.48
					V91.85h6.18V88.61z M16.48,82.79h-3.44c-0.39-1.44-0.8-3.35-1.05-4.69h5.61C17.34,79.44,16.89,81.35,16.48,82.79z M29.65,82.87
					v-4.93c0-0.42,0.27-0.76,0.72-0.83c3.21-0.42,5.75-0.96,8.85-1.81v-3.22c-3.67,0.79-7.97,1.55-11.78,2.11
					c-0.65,0.08-1.18,0.38-1.59,0.84c-0.45,0.57-0.72,1.24-0.72,1.99v15.76c0,4.56-0.8,9.63-2.95,12.85h4.87
					c2.14-4.06,2.6-10.03,2.6-15.22v-4.3h3.41v19.53h4.49V86.11h2.12v-3.24H29.65z M21.92,93.39H18.2c0.2,2.48,0.57,6.11,1.11,8.61
					h3.87C22.57,99.58,22.13,95.92,21.92,93.39z"/>
				<path class="st2" d="M77.87,73.55h-4.79c-1.11,3.57-2.34,7.05-4.59,10.16h5.25C75.67,80.53,76.92,77.04,77.87,73.55z
					 M57.97,83.71c-2.04-3.18-3.53-6.67-4.72-10.16h-4.77c1.21,3.42,2.48,6.95,4.38,10.16H57.97z M72.44,102.16
					c-0.75,0-1.26-0.53-1.26-1.25V89.12h8.78v-3.44H65.71V71.63h-5.17v14.06H46.1v3.44h8.84c0.59,10.48-6.1,14.49-9.63,16.49h7.56
					c2.58-1.8,7.39-5.57,7.16-16.49h6.03v12.33c0,3.02,1.71,4.16,3.6,4.16h9.92l1.48-3.46H72.44z"/>
			</g>
		</g>
		<rect x="197.52" y="0.55" class="st0" width="9.26" height="105.07"/>
	</g>
	<g>
		<g>
			<g>
				<path class="st2" d="M265.32,38.79h-6.56c0.36,4.36,1.01,10.76,1.97,15.16h6.82C266.45,49.69,265.67,43.23,265.32,38.79z
					 M278.93,11.55c0-0.73,0.47-1.33,1.27-1.46c5.66-0.73,10.13-1.67,15.59-3.2V1.24c-6.46,1.4-14.04,2.73-20.75,3.74
					c-1.14,0.12-2.07,0.66-2.81,1.45c-0.8,0.99-1.27,2.19-1.27,3.52v27.76c0,8.05-1.4,16.97-5.2,22.63h8.59
					c3.77-7.15,4.59-17.68,4.59-26.83v-7.58h6.01v34.41h7.91V25.94h3.73v-5.71h-17.65V11.55z M267.77,30.35h-10.89v-4.53h10.92
					v-5.72h-5.42c0.75-2.56,1.53-5.68,2.07-8.24h2.78V6.14h-10.57c-0.68-1.67-1.52-4.06-1.92-5.59h-8.02
					c0.47,1.71,1.18,3.87,1.82,5.59h-10.31v5.71h2.85c0.53,2.57,1.26,5.68,1.97,8.24h-5.38v5.72H249v4.53h-11.33v5.72H249v24.29
					h7.88V36.06h10.89V30.35z M255.73,20.09h-6.06c-0.67-2.55-1.41-5.89-1.85-8.24h9.87C257.24,14.2,256.45,17.55,255.73,20.09z
					 M363.9,3.81h-8.44c-1.96,6.28-4.13,12.43-8.09,17.92h9.24C360.01,16.12,362.21,9.97,363.9,3.81z M328.82,21.73
					c-3.59-5.61-6.21-11.77-8.32-17.92h-8.42c2.14,6.02,4.36,12.25,7.73,17.92H328.82z M235.54,58.4h7.33
					c1.94-6.32,3.26-13.03,4.18-19.6h-6.79C239.38,43.77,237.13,54.07,235.54,58.4z M352.09,52.03V31.25h15.48v-6.04h-25.11V0.42
					h-9.1v24.79h-25.43v6.04h15.58c1.04,18.48-10.77,25.54-16.98,29.06h13.3c4.56-3.18,13.03-9.8,12.62-29.06h10.62v21.74
					c0,5.31,3,7.32,6.33,7.32h17.5l2.61-6.09h-15.2C353,54.22,352.09,53.29,352.09,52.03z M416.84,26.02h-6.63
					c1.73-7.2,2.63-15.67,2.36-25.78h-8.96c0.85,34.14-13.02,47.73-26.6,60.06h11.78c8.02-6.89,15.62-15.53,20-29.17
					c2.97,6.57,9.27,18.41,19.97,29.18h12.91C430.11,50.09,421.72,38.6,416.84,26.02z M492.72,50.09h-11.05l2.21,4.52h11.07
					L492.72,50.09z M511.43,41.81v-4.89h-60.62v4.89h48.23v2.04h-17.7v4.76h17.7v5.85c0,0.89-0.72,1.69-1.55,1.69h-8.17l2.04,4.16
					h9.75c3.4,0,5.31-2.52,5.31-4.9v-6.79h4.94v-4.76h-4.94v-2.04H511.43z M476.4,10.82h-22.13v4.85h53.61v-4.85h-22.44V8.59h24.19
					V3.77h-24.19V0h-9.05v3.77h-24.21v4.82h24.21V10.82z M504.37,24.27v2.71h6.85v-3.81c0-1.89-0.55-3.33-1.58-4.35
					c-1.09-1.02-2.69-1.63-4.74-1.63h-54.24v5.02h51.99C503.82,22.2,504.37,23.38,504.37,24.27z M454.41,30.38v4.9h53.39v-4.9
					h-22.36v-1.84h16.54v-4.63h-45.01v4.63h19.42v1.84H454.41z M473.93,43.64h-16.48c-1.3,0-2.46,0.46-3.28,1.14
					c-1.02,0.83-1.64,1.99-1.64,3.35v6.39c0,1.14,0.41,2.29,1.09,3.11c0.75,1.02,1.98,1.71,3.41,1.71h17.09
					c1.46,0,2.56-0.48,3.31-1.22c0.95-0.89,1.36-2.19,1.36-3.47v-6.13c0-1.42-0.55-2.66-1.43-3.48
					C476.47,44.17,475.25,43.64,473.93,43.64z M472.23,52.82c0,1.02-0.75,1.56-1.57,1.56h-9.86c-0.82,0-1.71-0.74-1.71-1.7V50.3
					c0-1.08,0.68-1.63,1.5-1.63h10.21c0.89,0,1.43,0.69,1.43,1.42V52.82z"/>
			</g>
		</g>
		<g>
			<path class="st2" d="M464.97,79.87c-0.63,1.27-0.53,2.87-0.53,6.45l3.77-0.09v2.11l-3.77-0.08v3.63c0,2.61,0.03,5.03,0.08,7.2
				c0.06,2.19,0.13,4.36,0.24,6.52h-6.05c0.11-2.16,0.2-4.33,0.25-6.52c0.05-2.17,0.09-4.59,0.09-7.2v-3.6l-2.8,0.04v-2.11l2.8,0.12
				c0-7.93,1.16-10.73,5.82-10.73c1.86,0,3.18,0.45,4.51,1.03v2.76l-0.2,0.08C467.87,77.77,465.61,77.82,464.97,79.87z"/>
			<path class="st2" d="M427.86,83.28c-0.06-1.73-0.13-3.46-0.25-5.2c0.46,0.06,0.96,0.1,1.5,0.15c0.54,0.04,1.15,0.05,1.82,0.05
				c0.67,0,1.25-0.01,1.78-0.05c0.53-0.05,1.04-0.09,1.49-0.15c-0.11,1.74-0.18,3.47-0.23,5.2c-0.05,1.72-0.09,3.69-0.09,5.91v5.45
				c0,1.52,0,3,0.02,4.41c0.01,1.43,0.04,2.65,0.06,3.69c1.53,0,3.05-0.04,4.6-0.12c1.52-0.08,3.05-0.22,4.61-0.42
				c-0.05,0.3-0.09,0.57-0.12,0.81c-0.03,0.25-0.04,0.58-0.04,1c0,0.43,0.01,0.77,0.04,1c0.03,0.25,0.07,0.44,0.12,0.6
				c-0.72-0.03-1.62-0.04-2.68-0.05c-1.03-0.01-2.5-0.03-4.35-0.03c-1.64,0-2.97,0-3.99,0c-0.97,0-1.77,0-2.38,0
				c-0.6,0-1.06,0.01-1.37,0.03c-0.31,0.01-0.57,0.03-0.79,0.05c0.12-1.65,0.19-3.35,0.25-5.07c0.05-1.73,0.08-3.69,0.08-5.91v-5.45
				C427.94,86.97,427.92,85,427.86,83.28z"/>
			<path class="st2" d="M447.72,76.54c0.61-0.61,1.35-0.92,2.24-0.92c0.89,0,1.64,0.31,2.26,0.92c0.62,0.61,0.93,1.36,0.93,2.24
				c0,0.89-0.31,1.64-0.93,2.25c-0.62,0.61-1.37,0.92-2.26,0.92c-0.89,0-1.62-0.31-2.24-0.92c-0.62-0.61-0.92-1.36-0.92-2.25
				C446.8,77.9,447.1,77.15,447.72,76.54z M446.96,105.62c0.13-1.34,0.23-2.73,0.27-4.17c0.03-1.44,0.06-2.98,0.06-4.6v-1.61
				c0-1.63-0.03-3.16-0.06-4.59c-0.04-1.43-0.13-2.85-0.27-4.3h6.03c-0.14,1.45-0.23,2.88-0.26,4.3c-0.04,1.43-0.07,2.96-0.07,4.59
				v1.61c0,1.63,0.02,3.16,0.07,4.6c0.03,1.43,0.12,2.83,0.26,4.17H446.96z"/>
			<path class="st2" d="M480.77,103.64c1.92,0,3.78-0.6,5.31-1.81l0.18,0.17l-0.95,2.45c-0.68,0.52-1.48,0.93-2.42,1.24
				c-0.93,0.31-2.14,0.46-3.68,0.46c-1.31,0-2.57-0.18-3.76-0.53c-1.18-0.36-2.21-0.95-3.1-1.78c-0.9-0.83-1.62-1.89-2.14-3.14
				c-0.52-1.27-0.79-2.8-0.79-4.55c0-1.74,0.23-3.24,0.71-4.52c0.47-1.3,1.12-2.36,1.95-3.21c0.83-0.85,1.79-1.5,2.93-1.93
				c1.15-0.42,2.39-0.64,3.73-0.64c2.66,0,4.67,0.78,6.08,2.34c1.41,1.54,2.11,3.74,2.11,6.56v0.84c0,0.25-0.02,0.4-0.04,0.49
				h-11.52c0,1.07,0.1,2.06,0.32,2.99c0.21,0.94,0.54,1.75,0.98,2.42c0.44,0.67,1.01,1.2,1.7,1.59
				C479.05,103.45,479.86,103.64,480.77,103.64 M480.8,89.44c-0.44-1.19-1.18-1.78-2.22-1.78c-0.59,0-1.07,0.2-1.48,0.59
				c-0.4,0.4-0.73,0.92-0.96,1.52c-0.25,0.63-0.42,1.34-0.55,2.12c-0.12,0.79-0.19,1.56-0.21,2.32h6.16
				C481.48,92.24,481.24,90.65,480.8,89.44z"/>
			<path class="st2" d="M344.79,98.58c-1.12-1.52-2.29-3.05-3.46-4.66c-1.02-1.39-2.23-3.07-3.17-4.32c1.08-1.3,2.21-2.64,2.7-3.18
				c0.9-1.09,1.86-2.13,2.87-3.22c0.99-1.15,1.96-2.14,2.84-3.09c0.89-0.96,1.55-1.65,2-2.06h-5.46c-0.32,0.46-0.61,0.83-1.39,1.78
				c-0.78,0.89-1.62,1.87-2.57,3.01c-0.96,1.07-1.94,2.17-2.99,3.37c-0.84,0.9-1.62,1.76-2.52,2.73v-1.93
				c0-1.99,0.02-3.73,0.06-5.36c0.04-1.58,0.13-2.82,0.26-3.6h-6.16c0.09,1.76,0.14,3.46,0.2,5.2c0.03,1.7,0.06,3.71,0.06,5.94v5.46
				c0,2.16-0.03,4.15-0.06,5.92c-0.05,1.69-0.11,3.41-0.2,5.05h6.16c-0.16-1.25-0.25-2.9-0.27-4.95c-0.03-2.1-0.04-4.64-0.04-7.53
				v-0.6l0.06,0.14c1.27,1.76,2.76,3.75,4.86,6.73c1.45,2.12,2.95,4.21,4.47,6.22h7.29c-0.57-0.66-1.35-1.58-2.34-2.87
				C347.02,101.5,345.95,100.12,344.79,98.58z M278.22,99.93c0-1.05,0.04-2.1,0.08-3.14c0.05-1.03,0.08-2.23,0.08-3.6
				c0-2.6-0.51-4.49-1.52-5.65c-1.02-1.15-2.5-1.74-4.56-1.74c-1.31,0-2.48,0.31-3.51,0.92c-1.02,0.62-1.88,1.47-2.59,2.6
				l-0.09-0.08c0-2.63,0.03-5.04,0.09-7.23c0.05-2.19,0.14-4.4,0.24-6.67h-6.03c0.1,2.27,0.18,4.48,0.23,6.67
				c0.05,2.19,0.08,4.6,0.08,7.23v2.6c0,2.64-0.03,5.03-0.08,7.23c-0.05,2.19-0.12,4.38-0.23,6.54h6.03
				c-0.05-0.65-0.1-1.41-0.14-2.26c-0.04-0.87-0.08-1.73-0.11-2.58c-0.03-0.85-0.05-1.62-0.06-2.32c-0.01-0.72-0.02-1.26-0.02-1.65
				v-1.58c0-1.85,0.29-3.31,0.87-4.34c0.57-1.04,1.46-1.57,2.7-1.57c1.07,0,1.9,0.39,2.49,1.18c0.59,0.79,0.89,2.04,0.89,3.73
				c0,2.41-0.03,4.59-0.09,6.48c-0.06,1.9-0.18,3.52-0.37,4.92h5.82c-0.04-0.95-0.1-1.9-0.13-2.9
				C278.24,101.72,278.22,100.78,278.22,99.93z M311.57,99.93c0-1.05,0.03-2.1,0.08-3.14c0.05-1.03,0.08-2.23,0.08-3.6
				c0-2.6-0.52-4.49-1.54-5.65c-1.02-1.15-2.5-1.74-4.54-1.74c-1.31,0-2.48,0.31-3.5,0.93c-1.03,0.61-1.92,1.47-2.67,2.6h-0.08
				l0.16-3h-5.77c0.13,1.44,0.21,2.87,0.25,4.3c0.04,1.43,0.06,2.98,0.06,4.6v1.58c0,1.65-0.02,3.2-0.06,4.64
				c-0.04,1.46-0.12,2.83-0.25,4.17h6.01c-0.13-1.35-0.21-2.72-0.25-4.17c-0.04-1.45-0.06-2.99-0.06-4.64v-1.58
				c0-1.85,0.27-3.31,0.84-4.34c0.58-1.04,1.47-1.57,2.7-1.57c1.07,0,1.89,0.39,2.47,1.18c0.59,0.79,0.88,2.04,0.88,3.73
				c0,2.41-0.03,4.59-0.09,6.48c-0.05,1.9-0.17,3.52-0.36,4.92h5.84c-0.05-0.95-0.09-1.9-0.13-2.9
				C311.58,101.72,311.57,100.78,311.57,99.93z M286.16,75.55c-0.91,0-1.67,0.31-2.31,0.94c-0.61,0.62-0.93,1.37-0.93,2.25
				c0,0.89,0.32,1.63,0.93,2.25c0.64,0.62,1.4,0.92,2.31,0.92c0.9,0,1.67-0.3,2.3-0.92c0.63-0.63,0.95-1.37,0.95-2.25
				c0-0.87-0.31-1.63-0.95-2.25C287.83,75.86,287.06,75.55,286.16,75.55z M288.97,90.63c0.04-1.43,0.13-2.86,0.27-4.31h-6.14
				c0.13,1.45,0.23,2.88,0.27,4.31c0.04,1.43,0.06,2.97,0.06,4.6v1.58c0,1.65-0.02,3.19-0.06,4.64c-0.04,1.46-0.13,2.83-0.27,4.17
				h6.14c-0.14-1.35-0.23-2.71-0.27-4.17c-0.04-1.45-0.07-2.98-0.07-4.64v-1.58C288.9,93.61,288.92,92.07,288.97,90.63z
				 M403.33,102.56c-1.09-0.03-1.89-0.24-2.4-0.61c-0.51-0.37-0.75-0.89-0.75-1.54c0-0.37,0.11-0.71,0.35-1
				c0.23-0.29,0.5-0.46,0.83-0.46c0.36,0,0.68-0.02,0.96-0.01c0.28,0.01,0.58,0.03,0.88,0.03c1.18,0,2.27-0.18,3.24-0.48
				c0.97-0.32,1.77-0.77,2.44-1.37c0.66-0.59,1.16-1.28,1.53-2.1c0.36-0.81,0.54-1.71,0.54-2.71c0-1-0.19-1.88-0.56-2.62
				c-0.38-0.74-0.89-1.35-1.54-1.82l0.12-0.07l3.41,0.15V86c-0.68,0-1.39,0.01-2.09,0.02c-0.7,0.01-1.37,0.03-2.03,0.03
				c-0.41,0-0.8-0.01-1.18-0.03c-0.37-0.01-0.73-0.03-1.09-0.06c-0.49-0.02-1-0.06-1.51-0.1c-0.51-0.04-1.01-0.07-1.5-0.07
				c-1.27,0-2.46,0.15-3.52,0.44c-1.06,0.29-1.97,0.72-2.72,1.26c-0.73,0.53-1.27,1.21-1.67,2.02c-0.39,0.8-0.6,1.71-0.6,2.72
				c0,1.72,0.44,3.11,1.32,4.16c0.84,1.07,2.1,1.78,3.77,2.18v0.1c-1.14,0.29-2.06,0.87-2.75,1.71c-0.66,0.84-0.97,1.69-0.97,2.57
				c0,0.66,0.14,1.2,0.44,1.63c0.32,0.43,0.75,0.77,1.3,0.98l0.02,0.08c-1.08,0.45-1.85,1.02-2.46,1.8
				c-0.6,0.79-0.91,1.94-0.91,3.22c0,1.58,0.68,3,2.02,3.97c1.39,0.96,3.4,1.46,5.96,1.46c4.34,0,10.42-1.67,10.42-6.92
				C412.63,103.95,409.4,102.56,403.33,102.56z M402.81,87.46c0.73,0,1.34,0.37,1.82,1.09c0.49,0.74,0.74,2.01,0.74,3.81
				c0,1.86-0.23,3.17-0.65,3.93c-0.44,0.78-1.1,1.17-1.99,1.17c-0.32,0-0.64-0.08-0.95-0.24c-0.31-0.16-0.6-0.43-0.86-0.81
				c-0.25-0.38-0.47-0.84-0.63-1.44c-0.15-0.59-0.23-1.33-0.23-2.23C400.05,89.22,400.98,87.46,402.81,87.46z M407.84,111.37
				c-0.2,0.52-0.51,0.98-0.94,1.39c-0.42,0.4-0.92,0.72-1.5,0.95c-0.59,0.23-1.25,0.34-1.97,0.34c-0.69,0-1.32-0.08-1.92-0.27
				c-0.59-0.18-1.11-0.44-1.58-0.8c-0.46-0.34-0.81-0.77-1.07-1.29c-0.28-0.52-0.4-1.2-0.4-1.91c0-1,0.17-1.89,0.51-2.53
				c0.35-0.66,0.84-1,1.15-1.14c0.53-0.25,1.23-0.51,2.56-0.51c0.86,0,1.63,0.05,2.31,0.15c0.68,0.1,1.26,0.28,1.73,0.57
				c0.48,0.27,0.83,0.68,1.08,1.2c0.24,0.53,0.36,1.27,0.36,2.1C408.15,110.2,408.04,110.84,407.84,111.37z M359.76,85.8
				c-3.02,0-5.42,0.89-7.16,2.63c-1.76,1.79-2.63,4.17-2.63,7.21c0,1.63,0.25,3.09,0.74,4.41c0.49,1.32,1.18,2.44,2.06,3.36
				c0.89,0.9,1.94,1.59,3.16,2.05c1.17,0.46,2.43,0.7,3.82,0.7c1.38,0,2.65-0.24,3.81-0.7c1.22-0.46,2.27-1.15,3.16-2.05
				c0.89-0.92,1.58-2.04,2.07-3.36c0.5-1.32,0.75-2.79,0.75-4.41c0-3.04-0.88-5.42-2.62-7.21C365.17,86.69,362.77,85.8,359.76,85.8z
				 M359.76,104.44c-2.47,0-3.73-3.13-3.73-9.41c0-2.35,0.28-4.17,0.85-5.47c0.57-1.31,1.57-1.95,2.88-1.95
				c1.3,0,2.31,0.64,2.88,1.95c0.56,1.3,0.84,3.12,0.84,5.47C363.48,101.32,362.23,104.44,359.76,104.44z M390.86,99.93
				c0-1.05,0.03-2.1,0.08-3.14c0.05-1.03,0.08-2.23,0.08-3.6c0-2.6-0.55-4.49-1.67-5.65c-1.1-1.15-2.67-1.74-4.71-1.74
				c-1.32,0-2.48,0.31-3.5,0.93c-1.02,0.61-1.85,1.47-2.57,2.6h-0.08l0.16-3h-5.68c0.13,1.44,0.23,2.87,0.27,4.3
				c0.04,1.43,0.07,2.98,0.07,4.6v1.58c0,1.65-0.03,3.2-0.07,4.64c-0.04,1.46-0.13,2.83-0.27,4.17h5.9
				c-0.13-1.35-0.22-2.72-0.25-4.17c-0.04-1.45-0.06-2.99-0.06-4.64v-1.58c0-1.85,0.27-3.31,0.81-4.34
				c0.53-1.04,1.42-1.57,2.64-1.57c1.07,0,1.88,0.39,2.47,1.18c0.58,0.79,0.87,2.04,0.87,3.73c0,2.41-0.03,4.59-0.07,6.48
				c-0.07,1.9-0.18,3.52-0.37,4.92h6.13c-0.05-0.95-0.1-1.9-0.14-2.9C390.88,101.72,390.86,100.78,390.86,99.93z M255.81,93.33
				c-0.72-0.94-1.63-1.77-2.7-2.5c-1.07-0.66-2.18-1.22-3.37-1.68c-1.19-0.46-2.31-1.02-3.37-1.5c-1.04-0.48-1.93-1.05-2.64-1.67
				c-0.71-0.68-1.1-1.46-1.17-2.45c-0.07-0.95,0.32-1.82,1.12-2.53c0.83-0.72,1.91-1.08,3.3-1.08c3.2,0,5.44,1.13,6.77,3.46h0.37
				l1.34-4.02c-1-0.6-2.23-1.07-3.64-1.41c-1.37-0.34-2.99-0.52-4.81-0.52c-1.37,0-2.64,0.18-3.82,0.55
				c-1.21,0.38-2.22,0.92-3.11,1.61c-0.9,0.76-1.57,1.64-2.06,2.68c-0.49,1.11-0.69,2.32-0.59,3.75c0.11,1.5,0.53,2.78,1.27,3.74
				c0.72,0.96,1.6,1.82,2.64,2.48c1.05,0.66,2.14,1.21,3.33,1.67c1.21,0.53,2.31,1,3.34,1.49c1.02,0.48,1.88,1.01,2.58,1.71
				c0.72,0.64,1.09,1.46,1.16,2.44c0.08,1.18-0.28,2.11-1.08,2.9c-0.8,0.86-2.08,1.43-3.89,1.3c-1.02-0.09-1.96-0.23-2.82-0.5
				c-0.84-0.3-1.55-0.71-2.19-1.17c-0.63-0.44-1.22-1.09-1.65-1.63c-0.44-0.55-0.7-1.28-0.89-1.88l-0.43-0.03l-1.45,4.4
				c0.76,0.51,2.4,1.64,3.77,2.12c1.39,0.51,2.96,1.1,4.71,1.17c1.86,0.09,3.4-0.21,4.82-0.65c1.42-0.44,2.61-1.22,3.62-1.96
				c0.99-0.79,1.72-1.78,2.22-2.86c0.5-1.15,0.7-2.34,0.6-3.67C256.99,95.59,256.55,94.35,255.81,93.33z"/>
		</g>
	</g>
</g>
</svg>
